<?xml version="1.0" encoding="UTF-8"?>
<svg version="1.1" xmlns="http://www.w3.org/2000/svg" width="1024" height="1024">
<path d="M0 0 C0.51014648 0.42506836 1.02029297 0.85013672 1.54589844 1.28808594 C27.76534488 23.38424594 42.15511538 55.33555324 46 89 C46.25819998 92.35440332 46.42736532 95.70954632 46.578125 99.0703125 C46.62018066 99.935354 46.66223633 100.80039551 46.70556641 101.69165039 C46.80728233 103.79426386 46.90415857 105.89711057 47 108 C47.7213916 107.99333817 48.4427832 107.98667633 49.18603516 107.97981262 C56.01178294 107.91949659 62.83749046 107.87392193 69.66343689 107.84456348 C73.17206264 107.82896209 76.68046666 107.80782636 80.18896484 107.77368164 C84.23016388 107.73460247 88.27113298 107.7202452 92.3125 107.70703125 C93.5617627 107.69154739 94.81102539 107.67606354 96.09814453 107.66011047 C104.44458626 107.65850857 110.25614588 108.40810099 117.25 113.25 C125.39329469 121.39329469 125.95933455 131.71556257 127.29345703 142.65063477 C127.46509463 144.02004589 127.46509463 144.02004589 127.64019966 145.41712189 C128.01626535 148.4247888 128.38707211 151.43307867 128.7578125 154.44140625 C129.02391837 156.57860645 129.29034382 158.71576688 129.55706787 160.85289001 C130.26941135 166.56816808 130.9771537 172.28400718 131.68398285 177.99996948 C132.42613978 183.99510302 133.1725964 189.98970134 133.91845703 195.984375 C137.07085775 221.33591221 140.2047082 246.68977107 143.30929565 272.04721069 C145.55929278 290.42375823 147.84674508 308.79546058 150.14923096 327.16550446 C150.56371345 330.47239418 150.97806948 333.77929969 151.39234185 337.08621573 C151.81309934 340.44485408 152.23393027 343.80348323 152.65478516 347.16210938 C152.73888783 347.8332919 152.8229905 348.50447442 152.90964174 349.19599581 C153.82862046 356.52935138 154.74852161 363.86258918 155.67059326 371.19555664 C161.90901947 420.81176075 161.90901947 420.81176075 164.62626076 443.69914627 C164.84278887 445.51729121 165.06137631 447.33519237 165.2822628 449.15281296 C168.86616124 478.71508982 168.86616124 478.71508982 161.3515625 489.328125 C155.73032407 495.95578603 149.04322647 502.13120756 140.07967954 503.23687438 C137.82497725 503.40135616 135.57383797 503.51370866 133.3149786 503.6049242 C132.47777493 503.64338057 131.64057126 503.68183695 130.77799779 503.72145866 C122.04725354 504.09306848 113.3225476 504.14267205 104.58534241 504.13371277 C102.81620642 504.13558697 101.04707086 504.13789006 99.27793592 504.14057809 C94.47555411 504.1466264 89.67318988 504.14657087 84.87080514 504.14538372 C79.66908595 504.14517795 74.46737214 504.15071483 69.26565552 504.15544128 C59.10075904 504.16370788 48.93586836 504.16649423 38.7709688 504.16705366 C30.50827094 504.16753032 22.24557499 504.16959251 13.98287773 504.17275429 C-9.47320508 504.18154666 -32.92928333 504.18617539 -56.3853678 504.18542381 C-57.64691957 504.18538386 -58.90847134 504.1853439 -60.20825195 504.18530273 C-61.47135221 504.18526185 -62.73445246 504.18522097 -64.03582848 504.18517885 C-84.5351103 504.18477184 -105.03437381 504.19435905 -125.53365033 504.2084411 C-146.61130239 504.22280579 -167.6889455 504.22971137 -188.76660258 504.22884732 C-200.58884969 504.22851559 -212.41107754 504.23125281 -224.23332024 504.24202538 C-234.28996707 504.25113113 -244.3465859 504.25330465 -254.40323507 504.24651595 C-259.53082306 504.24325237 -264.6583573 504.24318854 -269.78594017 504.2518692 C-274.48406664 504.25974109 -279.18209681 504.25829576 -283.88022096 504.24958507 C-285.57501054 504.24805172 -287.26980733 504.24985999 -288.9645884 504.25544515 C-318.52092247 504.34635982 -318.52092247 504.34635982 -329.8125 493.6875 C-337.38209997 485.52736387 -339.4039536 479.07809773 -339.09640121 468.08597183 C-338.78863114 461.42630771 -337.87168955 454.8106165 -337.05078125 448.19921875 C-336.83923748 446.44531392 -336.62840304 444.69132342 -336.41821289 442.93725586 C-335.84619335 438.18229564 -335.26365296 433.42867854 -334.67898941 428.67525864 C-334.18411852 424.64088618 -333.695415 420.60577644 -333.20677471 416.57064533 C-331.62496696 403.50862887 -330.02329894 390.44908379 -328.41687012 377.39007568 C-327.99982124 373.99854627 -327.58331311 370.60695088 -327.16699219 367.21533203 C-321.48165984 320.90078086 -315.75729347 274.59102344 -309.82885742 228.30688477 C-308.14739538 215.16015921 -306.50336465 202.00955528 -304.89872742 188.85326385 C-304.5875221 186.30205276 -304.27581855 183.75090297 -303.96398926 181.19976807 C-303.05490753 173.75949113 -302.1475212 166.31903877 -301.25086784 158.87725258 C-300.88445039 155.84328009 -300.51444932 152.80975175 -300.14360428 149.7763176 C-299.97240929 148.36922827 -299.80277936 146.96194746 -299.63486862 145.55446243 C-296.68656974 120.85628573 -296.68656974 120.85628573 -288.125 113.1875 C-280.21406192 107.64984334 -273.90168057 107.58987357 -264.41015625 107.70703125 C-263.11049423 107.71127609 -261.81083221 107.71552094 -260.4717865 107.71989441 C-257.03740741 107.73128051 -253.60341649 107.7606925 -250.16918945 107.79400635 C-246.65646616 107.82484292 -243.14367937 107.83842859 -239.63085938 107.85351562 C-232.75374805 107.88556937 -225.87689273 107.93668885 -219 108 C-218.90585815 106.50412354 -218.90585815 106.50412354 -218.80981445 104.97802734 C-218.72355756 103.63899176 -218.6372082 102.29996212 -218.55078125 100.9609375 C-218.4257019 99.00099854 -218.4257019 99.00099854 -218.2980957 97.00146484 C-215.94710739 63.24734632 -204.3288443 33.69875916 -181 9 C-180.32582031 8.26136719 -179.65164063 7.52273437 -178.95703125 6.76171875 C-157.08348699 -16.34298184 -124.81936434 -30.19343459 -93.21875 -31.96875 C-58.63706939 -32.30449447 -26.63061359 -22.43734872 0 0 Z M-151 29 C-151.96873047 29.97259766 -151.96873047 29.97259766 -152.95703125 30.96484375 C-171.60361567 50.78910719 -177.91406173 79.44507459 -178 106 C-177.67 106.66 -177.34 107.32 -177 108 C-116.94 108 -56.88 108 5 108 C5.0399042 95.77121074 5.0399042 95.77121074 3.875 83.75 C3.74810791 82.87029541 3.62121582 81.99059082 3.49047852 81.08422852 C-0.61533548 55.21690402 -13.95671218 33.55764442 -35 18 C-50.34553257 7.36668081 -67.1719006 2.39732693 -85.75 2.5625 C-87.58751831 2.57603516 -87.58751831 2.57603516 -89.4621582 2.58984375 C-113.28639876 3.0428299 -134.25964545 11.79840391 -151 29 Z M-212.875 129.375 C-213.57625 130.24125 -214.2775 131.1075 -215 132 C-215.8971875 133.051875 -215.8971875 133.051875 -216.8125 134.125 C-218.97665039 139.36452199 -219.07789437 144.99586846 -217.15625 150.3515625 C-214.79376948 154.61360506 -211.93995759 157.46486648 -207.4375 159.375 C-200.94750741 161.03910066 -193.73260616 161.14413595 -187.5 158.5 C-183.27841851 155.9330638 -180.67750241 152.6382555 -179 148 C-178.12966499 142.63935253 -178.20556135 137.78761842 -180.8125 132.9375 C-182.85101196 129.85663229 -182.85101196 129.85663229 -186 128 C-187.0209375 127.2265625 -187.0209375 127.2265625 -188.0625 126.4375 C-196.49138402 122.31272697 -205.68793019 123.43785537 -212.875 129.375 Z M8 133 C5.35429862 137.2561283 5.44778374 142.12496579 6 147 C7.94084157 152.31177694 11.09035268 156.55279322 16.23828125 159.11328125 C22.26893852 161.04957432 29.53933074 161.18712085 35.55078125 159.125 C41.53411805 155.69951151 44.13518519 151.17098763 45.9375 144.5625 C46.0354271 138.98065534 44.15552838 135.03372994 41.4375 130.25 C37.35465197 126.4812172 32.02450144 124.20906692 26.45703125 123.82421875 C19.00301497 124.35749495 12.9768322 127.47175742 8 133 Z M-263.75 212.3125 C-278.17601006 227.27896577 -284.63192761 245.30480572 -284.31640625 265.9609375 C-283.26110433 283.93197851 -275.35420604 301.93983933 -263 315 C-262.34 315 -261.68 315 -261 315 C-261 315.66 -261 316.32 -261 317 C-259.43404011 318.46176104 -257.79392831 319.84449814 -256.125 321.1875 C-254.76761719 322.29158203 -254.76761719 322.29158203 -253.3828125 323.41796875 C-245.45559297 329.55608453 -237.31612525 334.65206113 -228.375 339.1875 C-227.39015625 339.69474609 -226.4053125 340.20199219 -225.390625 340.72460938 C-222.59867659 342.15967086 -219.80065936 343.58203 -217 345 C-216.2359082 345.39010254 -215.47181641 345.78020508 -214.68457031 346.18212891 C-213.99717773 346.53065918 -213.30978516 346.87918945 -212.6015625 347.23828125 C-211.72878662 347.68167847 -211.72878662 347.68167847 -210.83837891 348.1340332 C-208.59509159 349.19073176 -206.30636848 350.08929878 -204 351 C-135.00259986 379.64854644 -135.00259986 379.64854644 -126 398 C-123.85402855 404.89572158 -124.18525432 413.02775307 -126.78125 419.74609375 C-133.23152135 431.67496096 -145.16024147 438.38664867 -157.78515625 442.15625 C-159.37650391 442.57390625 -159.37650391 442.57390625 -161 443 C-162.69962891 443.44859375 -162.69962891 443.44859375 -164.43359375 443.90625 C-198.23323719 451.50325623 -235.8671003 443.10214969 -265 425 C-265.58378418 424.63938477 -266.16756836 424.27876953 -266.76904297 423.90722656 C-279.05670547 416.17402421 -289.38239047 406.68446468 -298 395 C-300.48331701 398.85817045 -300.54084386 403.01663289 -300.8515625 407.46484375 C-300.91532074 408.29399796 -300.97907898 409.12315216 -301.04476929 409.97743225 C-301.17806588 411.73473635 -301.30724896 413.49235663 -301.43261719 415.25024414 C-301.62213673 417.897505 -301.8255589 420.54340525 -302.03125 423.18945312 C-302.35047608 427.37166957 -302.61691557 431.55486769 -302.8560791 435.74237061 C-302.98873677 437.82331828 -303.17501503 439.9006632 -303.36621094 441.97705078 C-303.93856895 447.78416754 -303.93856895 447.78416754 -301.49682617 452.76196289 C-299.38936084 454.14551143 -297.34324558 455.07676626 -295 456 C-293.69441404 456.65972558 -292.39097146 457.32371219 -291.08984375 457.9921875 C-268.35472382 468.5210107 -242.51825911 475.99569171 -217.37890625 476.859375 C-215 477 -215 477 -213 478 C-210.34822992 478.24215713 -207.72022697 478.42744158 -205.0625 478.5625 C-204.25619141 478.6035083 -203.44988281 478.6445166 -202.61914062 478.68676758 C-159.90091259 480.68453134 -108.63797944 477.58634606 -75 448 C-73.77410156 446.94039062 -73.77410156 446.94039062 -72.5234375 445.859375 C-56.5007028 430.99292012 -50.1998909 410.62339764 -48.75 389.328125 C-48.49394593 383.94318031 -48.49394593 383.94318031 -50.08203125 378.9296875 C-51 377 -51 377 -50.53515625 375.20703125 C-48.29611757 365.97303962 -55.25964609 353.27100069 -59.7734375 345.49609375 C-63.00407394 340.2517228 -66.85140047 335.54954899 -71 331 C-71.54011719 330.40703125 -72.08023438 329.8140625 -72.63671875 329.203125 C-73.94688281 327.77943577 -73.94688281 327.77943577 -76 328 C-76 327.34 -76 326.68 -76 326 C-77.96445659 324.37625385 -79.91771616 322.89786401 -82 321.4375 C-82.63373535 320.99204834 -83.2674707 320.54659668 -83.92041016 320.08764648 C-102.99742276 306.91408855 -124.51028224 298.13504216 -145.9375 289.5625 C-156.05076999 285.5135196 -166.03494867 281.30921312 -175.875 276.625 C-176.85976318 276.1616626 -177.84452637 275.6983252 -178.85913086 275.22094727 C-189.11860443 270.23995642 -202.02184501 263.20729304 -206.9375 252.3125 C-209.62754588 243.92588637 -209.70673345 237.02994706 -206.4296875 228.76953125 C-200.29300316 216.8818012 -186.61203449 210.65344792 -174.4375 206.625 C-137.68735039 196.55768629 -103.23889521 206.56832971 -70.84008789 224.02612305 C-68.90817347 225.04859971 -66.9584914 226.02954709 -65 227 C-64.13966733 221.55656538 -63.28535718 216.11223179 -62.43652344 210.66699219 C-62.14714715 208.8161492 -61.85614997 206.96555886 -61.56347656 205.11523438 C-61.14217752 202.44987309 -60.72678752 199.78364647 -60.3125 197.1171875 C-60.18125732 196.29507782 -60.05001465 195.47296814 -59.91479492 194.62594604 C-59.25972192 190.37044289 -58.85410805 186.32204888 -59 182 C-121.49283814 160.90726469 -213.74347465 164.5665436 -263.75 212.3125 Z M-30 187 C-30.07347656 209.33494141 -30.07347656 209.33494141 -30.1484375 232.12109375 C-30.1838334 241.5683651 -30.21971948 251.0156304 -30.2578125 260.46289062 C-30.31815079 275.44961148 -30.37651904 290.43632101 -30.421875 305.4230957 C-30.45492203 316.33963468 -30.49482255 327.25612398 -30.54279006 338.17260796 C-30.56792922 343.94728328 -30.58974696 349.72192617 -30.60334396 355.49664116 C-30.61627939 360.94424139 -30.63845463 366.3917297 -30.66738319 371.83926773 C-30.67637006 373.82684803 -30.68212809 375.8144463 -30.68421364 377.80204582 C-30.70280302 392.84221902 -31.14835592 407.956852 -35.125 422.5625 C-35.33455322 423.34278564 -35.54410645 424.12307129 -35.76000977 424.92700195 C-38.82663142 435.64551271 -43.75192446 446.05680401 -50.96875 454.6171875 C-52.19927463 455.9797081 -52.19927463 455.9797081 -52 458 C-52.66 458 -53.32 458 -54 458 C-54 458.66 -54 459.32 -54 460 C-54.55429687 460.2475 -55.10859375 460.495 -55.6796875 460.75 C-58.43264997 462.23307743 -60.69809708 464.02949972 -63.125 466 C-63.99382812 466.70125 -64.86265625 467.4025 -65.7578125 468.125 C-68.01716533 469.95794434 -68.01716533 469.95794434 -70 472 C-5.32 472 59.36 472 126 472 C126.74558345 468.27208274 127.10555093 466.07082702 126.86987305 462.47265625 C126.81619064 461.60825928 126.76250824 460.7438623 126.7071991 459.85327148 C126.64269058 458.93231689 126.57818207 458.0113623 126.51171875 457.0625 C126.44845901 456.10480713 126.38519928 455.14711426 126.32002258 454.16040039 C126.18454206 452.13958458 126.04564633 450.11899522 125.90356445 448.09863281 C125.68831593 445.01170141 125.48900106 441.92401847 125.29101562 438.8359375 C125.15721335 436.86972587 125.0224789 434.90357741 124.88671875 432.9375 C124.82828293 432.01654541 124.76984711 431.09559082 124.7096405 430.14672852 C124.64650162 429.28233154 124.58336273 428.41793457 124.51831055 427.52734375 C124.44050606 426.39413696 124.44050606 426.39413696 124.36112976 425.23803711 C123.93971434 422.62639038 123.05532679 420.41803355 122 418 C121.40824258 418 120.81648516 418 120.20679569 418 C82.13786379 418 44.0689319 418 6 418 C5.67 398.2 5.34 378.4 5 358 C33.8125 358.125 33.8125 358.125 42.90551758 358.18017578 C45.27685365 358.18601554 47.64819171 358.19111232 50.01953125 358.1953125 C51.25650757 358.20554443 52.49348389 358.21577637 53.76794434 358.22631836 C54.94514038 358.22656006 56.12233643 358.22680176 57.33520508 358.22705078 C58.87075798 358.23371262 58.87075798 358.23371262 60.43733215 358.24050903 C63.24135634 358.18180912 63.24135634 358.18180912 66 356 C66 356.66 66 357.32 66 358 C67.0725 358 68.145 358 69.25 358 C77 358 77 358 80.42578125 358.0703125 C81.70839844 358.08835937 82.99101563 358.10640625 84.3125 358.125 C85.58738281 358.14820313 86.86226562 358.17140625 88.17578125 358.1953125 C92.08209637 357.99580713 95.27196686 357.12926721 99 356 C99.43290436 350.23868769 99.85990877 344.47697754 100.28173828 338.71484375 C100.42567306 336.75964919 100.57114621 334.80456718 100.71826172 332.84960938 C101.89225158 317.44302434 101.89225158 317.44302434 102 302 C79.46050882 301.02464626 56.93121484 300.91065136 34.375 300.9375 C33.28864321 300.93878403 33.28864321 300.93878403 32.18033981 300.94009399 C23.12019314 300.9515887 14.06012658 300.97469238 5 301 C5 281.86 5 262.72 5 243 C16.02728516 243.01740234 16.02728516 243.01740234 27.27734375 243.03515625 C31.92122484 243.04026285 36.56510248 243.04507661 41.20898438 243.04882812 C48.58781651 243.05481717 55.9666363 243.0619191 63.34545898 243.07543945 C69.29116006 243.08626629 75.23684789 243.0922764 81.18255806 243.09487724 C83.45646943 243.09673186 85.73038004 243.10035317 88.00428581 243.10573006 C91.1772712 243.11293778 94.35020117 243.11399106 97.52319336 243.11352539 C98.47337341 243.11712067 99.42355347 243.12071594 100.40252686 243.12442017 C104.52637235 243.54226142 104.52637235 243.54226142 108 242 C108.21592729 240.55729831 108.37123363 239.10542048 108.5 237.65234375 C108.5820166 236.74508545 108.6640332 235.83782715 108.74853516 234.90307617 C108.87301025 233.43511597 108.87301025 233.43511597 109 231.9375 C109.08685059 230.93759033 109.17370117 229.93768066 109.26318359 228.9074707 C109.51664747 225.93889984 109.76090047 222.96975984 110 220 C110.06219727 219.22978516 110.12439453 218.45957031 110.18847656 217.66601562 C110.99021315 207.40186694 111 197.33190062 111 187 C64.47 187 17.94 187 -30 187 Z " fill="#910345" transform="translate(598,228)"/>
<path d="M0 0 C2.87370003 2.87370003 2.72180457 6.06266719 3.125 9.9375 C3.2480249 11.09113037 3.2480249 11.09113037 3.37353516 12.26806641 C4.50940625 23.48802706 5.2099594 33.64185828 -1.6484375 43.328125 C-7.26967593 49.95578603 -13.95677353 56.13120756 -22.92032046 57.23687438 C-25.17502275 57.40135616 -27.42616203 57.51370866 -29.6850214 57.6049242 C-30.52222507 57.64338057 -31.35942874 57.68183695 -32.22200221 57.72145866 C-40.95274646 58.09306848 -49.6774524 58.14267205 -58.41465759 58.13371277 C-60.18379358 58.13558697 -61.95292914 58.13789006 -63.72206408 58.14057809 C-68.52444589 58.1466264 -73.32681012 58.14657087 -78.12919486 58.14538372 C-83.33091405 58.14517795 -88.53262786 58.15071483 -93.73434448 58.15544128 C-103.89924096 58.16370788 -114.06413164 58.16649423 -124.2290312 58.16705366 C-132.49172906 58.16753032 -140.75442501 58.16959251 -149.01712227 58.17275429 C-172.47320508 58.18154666 -195.92928333 58.18617539 -219.3853678 58.18542381 C-220.64691957 58.18538386 -221.90847134 58.1853439 -223.20825195 58.18530273 C-224.47135221 58.18526185 -225.73445246 58.18522097 -227.03582848 58.18517885 C-247.5351103 58.18477184 -268.03437381 58.19435905 -288.53365033 58.2084411 C-309.61130239 58.22280579 -330.6889455 58.22971137 -351.76660258 58.22884732 C-363.58884969 58.22851559 -375.41107754 58.23125281 -387.23332024 58.24202538 C-397.28996707 58.25113113 -407.3465859 58.25330465 -417.40323507 58.24651595 C-422.53082306 58.24325237 -427.6583573 58.24318854 -432.78594017 58.2518692 C-437.48406664 58.25974109 -442.18209681 58.25829576 -446.88022096 58.24958507 C-448.57501054 58.24805172 -450.26980733 58.24985999 -451.9645884 58.25544515 C-481.52092247 58.34635982 -481.52092247 58.34635982 -492.8125 47.6875 C-499.8795504 40.06911943 -502.22092788 33.98500899 -502.16796875 23.7109375 C-501.9543273 18.99095197 -501.17848079 14.56661306 -500 10 C-499.67 10 -499.34 10 -499 10 C-499.03480469 11.918125 -499.03480469 11.918125 -499.0703125 13.875 C-499.08908533 15.58332745 -499.10728389 17.29166127 -499.125 19 C-499.14175781 19.83917969 -499.15851563 20.67835938 -499.17578125 21.54296875 C-499.24951428 31.0545301 -497.37083593 38.6823307 -491 46 C-484.02445148 51.85247273 -477.28467015 54.31070718 -468.17536259 54.25447559 C-467.40232667 54.25768207 -466.62929075 54.26088855 -465.83282951 54.26419219 C-463.23914991 54.27250207 -460.64570064 54.26656446 -458.05201721 54.26069641 C-456.17504202 54.26371664 -454.29806805 54.26760547 -452.42109627 54.27228898 C-447.26042943 54.28259422 -442.09983186 54.28038073 -436.93915927 54.27610838 C-431.37465401 54.27364576 -425.81016563 54.28264952 -420.2456665 54.29014587 C-409.3433828 54.30290758 -398.44112372 54.30468475 -387.5388338 54.30234561 C-378.67938411 54.30056402 -369.81994189 54.30230867 -360.96049309 54.30657005 C-359.70053772 54.30716524 -358.44058236 54.30776043 -357.14244653 54.30837366 C-354.58302085 54.30958538 -352.02359517 54.31079951 -349.46416949 54.31201603 C-332.27477814 54.31980536 -315.08538962 54.32372087 -297.89599705 54.31969929 C-297.22376825 54.31954291 -296.55153946 54.31938654 -295.8589401 54.31922542 C-292.45179087 54.31841963 -289.04464164 54.31757386 -285.63749243 54.31671212 C-284.62247973 54.31645549 -284.62247973 54.31645549 -283.58696174 54.31619367 C-282.21856055 54.31584702 -280.85015937 54.31549849 -279.48175819 54.31514808 C-258.18630875 54.3097901 -236.8909007 54.31772337 -215.59545898 54.33618164 C-191.67183215 54.35689364 -167.74823077 54.36759484 -143.82459205 54.36360615 C-131.15666778 54.36169156 -118.48878123 54.36420679 -105.82086372 54.37832069 C-95.03728092 54.39021339 -84.25375906 54.39166309 -73.47017545 54.37953053 C-67.96657775 54.37362715 -62.46309164 54.37258266 -56.95950127 54.38453293 C-51.9230683 54.39534192 -46.88684076 54.39234798 -41.85041761 54.37827124 C-40.02679683 54.37561054 -38.20316022 54.37803365 -36.37955493 54.38600711 C-33.90294718 54.39608555 -31.42705735 54.38771506 -28.95047855 54.37473011 C-28.24060556 54.38203946 -27.53073256 54.3893488 -26.79934826 54.39687964 C-18.6507773 54.30817533 -11.77313998 50.63290177 -6 45 C1.15711522 35.05439833 2.23795044 25.84116952 0.5 13.75 C-0.11443009 9.14177434 -0.08558105 4.64039475 0 0 Z " fill="#65062D" transform="translate(761,674)"/>
<path d="M0 0 C47.85 0 95.7 0 145 0 C146.20552348 3.61657043 145.94228928 6.20524324 145.6953125 10.01171875 C145.63015945 11.04230156 145.63015945 11.04230156 145.56369019 12.09370422 C145.4705369 13.5488971 145.37452783 15.00390958 145.27587891 16.45874023 C145.12675453 18.66158241 144.98640994 20.86484222 144.84765625 23.06835938 C144.41497596 29.74574394 143.87511884 36.36575257 143 43 C142.67 43 142.34 43 142 43 C141.97007476 39.35418507 141.95290212 35.7084029 141.9375 32.0625 C141.92912109 31.06025391 141.92074219 30.05800781 141.91210938 29.02539062 C141.88377735 19.98747603 142.40116595 11.01356639 143 2 C141.60491211 2.04543945 141.60491211 2.04543945 140.18164062 2.09179688 C102.59002883 3.2898326 65.04267009 3.23395029 27.44140625 2.4921875 C24.95349429 2.44441936 22.46557926 2.39681124 19.97766113 2.34936523 C13.98507088 2.23474441 7.9925209 2.1181882 2 2 C2.00184359 3.07528646 2.00368717 4.15057293 2.00558662 5.25844383 C2.0499293 31.38796235 2.08282465 57.517476 2.10362434 83.64702415 C2.11394952 96.28292551 2.1280335 108.91880206 2.15087891 121.5546875 C2.17077485 132.56443696 2.1837074 143.57416845 2.18817699 154.58393538 C2.19079082 160.41684353 2.19696009 166.24970029 2.21146011 172.08259201 C2.22498413 177.56704157 2.22923319 183.0514183 2.22621536 188.53588295 C2.22676786 190.55396863 2.23077601 192.57205663 2.23841095 194.59012794 C2.24829124 197.33519051 2.24599438 200.07997435 2.24050903 202.82504272 C2.24633472 203.63242524 2.2521604 204.43980775 2.25816262 205.27165639 C2.22824242 210.77175758 2.22824242 210.77175758 0 213 C0 142.71 0 72.42 0 0 Z " fill="#770B3A" transform="translate(566,413)"/>
<path d="M0 0 C-0.99 0.49628906 -1.98 0.99257813 -3 1.50390625 C-17.85820407 8.8041026 -17.85820407 8.8041026 -27 22 C-28.56019868 29.60452394 -28.59859205 37.08323951 -24.9140625 44.0546875 C-11.14238221 64.51319522 21.75755222 73.59192265 43.48144531 81.95532227 C50.49357343 84.69230954 57.31479277 87.82506877 64.13232422 91.00854492 C66.12594136 91.93793885 68.1233744 92.85875994 70.12109375 93.77929688 C76.67614692 96.82142606 82.9828546 99.96560353 89 104 C86 105 86 105 82.53515625 103.33203125 C81.04121729 102.49763132 79.55060369 101.65726283 78.0625 100.8125 C63.47590605 92.83828616 48.04177684 86.70579657 32.6796875 80.40234375 C22.56036686 76.24603383 12.52344858 71.97479529 2.625 67.3125 C1.70420654 66.88509521 0.78341309 66.45769043 -0.1652832 66.01733398 C-10.74900797 60.94848546 -23.96937634 53.42916368 -29 42.25 C-31.56342334 33.91887415 -31.73290055 27.04171429 -28.50390625 18.83984375 C-24.46299409 11.20934209 -9.74887984 -4.07380728 0 0 Z " fill="#730B38" transform="translate(419,438)"/>
<path d="M0 0 C1.01505615 0.00008057 2.0301123 0.00016113 3.07592773 0.00024414 C10.5212201 0.05673346 17.50911078 0.69634602 24.8125 2.1875 C25.86050781 2.33960938 26.90851563 2.49171875 27.98828125 2.6484375 C30.92134145 3.20827472 32.55198243 4.22762423 34.93359375 5.96875 C37.34806508 7.53489356 39.89032864 8.66276556 42.5 9.875 C49.09339005 13.09369103 54.2905905 17.4194038 59.8125 22.1875 C60.9571875 23.00154297 60.9571875 23.00154297 62.125 23.83203125 C62.681875 24.27933594 63.23875 24.72664063 63.8125 25.1875 C63.8125 25.8475 63.8125 26.5075 63.8125 27.1875 C64.37839844 27.39761719 64.94429687 27.60773438 65.52734375 27.82421875 C68.6507431 29.68758007 70.23927901 32.06925597 72.375 35 C73.13941406 36.03769531 73.90382813 37.07539063 74.69140625 38.14453125 C78.5434414 43.67074742 78.5434414 43.67074742 79.8125 46.1875 C79.4825 47.1775 79.1525 48.1675 78.8125 49.1875 C78.49087891 48.71441406 78.16925781 48.24132812 77.83789062 47.75390625 C62.56528114 25.4005577 44.47418494 9.77354513 17.31176758 3.78735352 C11.55550301 2.80059973 5.89146847 2.69817615 0.0625 2.75 C-1.77501831 2.76353516 -1.77501831 2.76353516 -3.6496582 2.77734375 C-19.89225484 3.08617506 -37.36424958 6.65059209 -50.48046875 16.99609375 C-51.04378906 17.38925781 -51.60710937 17.78242188 -52.1875 18.1875 C-53.1775 17.8575 -54.1675 17.5275 -55.1875 17.1875 C-46.1494421 11.27288858 -38.02334023 6.60319553 -27.6875 3.5 C-26.97513184 3.28520996 -26.26276367 3.07041992 -25.52880859 2.84912109 C-17.02639674 0.40225723 -8.80132198 -0.00652326 0 0 Z " fill="#730A36" transform="translate(512.1875,228.8125)"/>
<path d="M0 0 C2.87370003 2.87370003 2.72180457 6.06266719 3.125 9.9375 C3.2070166 10.70658691 3.2890332 11.47567383 3.37353516 12.26806641 C4.50940625 23.48802706 5.2099594 33.64185828 -1.6484375 43.328125 C-8.04306058 50.86763693 -14.82230477 56.23646463 -24.82421875 57.47265625 C-39.16102192 58.51176484 -53.63782358 58.10045642 -68 58 C-68 57.34 -68 56.68 -68 56 C-72.29 56 -76.58 56 -81 56 C-81 55.67 -81 55.34 -81 55 C-80.26385971 54.99413376 -79.52771942 54.98826752 -78.76927185 54.98222351 C-71.81051895 54.92416878 -64.85203729 54.85201925 -57.89359951 54.76428509 C-54.31670347 54.71967697 -50.73991882 54.68040047 -47.1628418 54.65356445 C-43.70668193 54.62743513 -40.2509529 54.5869665 -36.79506111 54.53681374 C-34.84381509 54.5121637 -32.89240204 54.50212513 -30.94102478 54.49235535 C-20.79898703 54.32516091 -13.41499117 52.23486992 -6 45 C1.15711522 35.05439833 2.23795044 25.84116952 0.5 13.75 C-0.11443009 9.14177434 -0.08558105 4.64039475 0 0 Z " fill="#700D37" transform="translate(761,674)"/>
<path d="M0 0 C21.11577233 2.43269266 43.38802921 22.31868969 56.40576172 38.1640625 C67.5103464 52.16331678 82.19915398 73.2132543 81 92 C79.47199148 89.08534057 78.28354908 86.16408569 77.1875 83.0625 C76.83558594 82.09054687 76.48367188 81.11859375 76.12109375 80.1171875 C75.37488359 78.04235926 74.6378606 75.96420343 73.91015625 73.8828125 C69.30312553 61.19408816 62.88433255 50.19679077 54 40 C53.278125 39.15695313 52.55625 38.31390625 51.8125 37.4453125 C37.759078 21.39122973 19.69673597 9.14896145 0 1 C0 0.67 0 0.34 0 0 Z " fill="#700D38" transform="translate(558,206)"/>
<path d="M0 0 C0.33 0 0.66 0 1 0 C0.96519531 1.918125 0.96519531 1.918125 0.9296875 3.875 C0.91091467 5.58332745 0.89271611 7.29166127 0.875 9 C0.85824219 9.83917969 0.84148437 10.67835938 0.82421875 11.54296875 C0.75048572 21.0545301 2.62916407 28.6823307 9 36 C17.36351243 43.01697196 25.09216289 44.30063707 35.7421875 44.4140625 C36.86569611 44.43342865 37.98920471 44.4527948 39.14675903 44.4727478 C42.72276298 44.53235875 46.29879943 44.57885548 49.875 44.625 C52.30470126 44.66319674 54.73438923 44.70224946 57.1640625 44.7421875 C63.10925667 44.83804515 69.05453142 44.92314658 75 45 C75 45.33 75 45.66 75 46 C69.06 46 63.12 46 57 46 C56.505 46.99 56.505 46.99 56 48 C18.76391628 48.61523778 18.76391628 48.61523778 7.1875 37.6875 C0.1204496 30.06911943 -2.22092788 23.98500899 -2.16796875 13.7109375 C-1.9543273 8.99095197 -1.17848079 4.56661306 0 0 Z " fill="#700A36" transform="translate(261,684)"/>
<path d="M0 0 C0.33 0 0.66 0 1 0 C1.05398987 2.27057377 1.09278742 4.54151288 1.125 6.8125 C1.14820313 8.07707031 1.17140625 9.34164062 1.1953125 10.64453125 C1 14 1 14 -1 17 C-5.78692644 18.25802325 -10.657352 18.13612051 -15.57568359 18.11352539 C-16.41536682 18.11367142 -17.25505005 18.11381744 -18.12017822 18.1139679 C-20.87962479 18.11327445 -23.63900281 18.10550874 -26.3984375 18.09765625 C-28.31800296 18.09579005 -30.2375689 18.0943671 -32.15713501 18.09336853 C-37.1975436 18.08955925 -42.23792316 18.07974257 -47.27832031 18.06866455 C-52.4264283 18.05841623 -57.57454099 18.05386359 -62.72265625 18.04882812 C-72.81511689 18.03811884 -82.90755603 18.02106154 -93 18 C-93 17.67 -93 17.34 -93 17 C-66.27 16.505 -66.27 16.505 -39 16 C-38.67 15.34 -38.34 14.68 -38 14 C-36.68 14 -35.36 14 -34 14 C-34 14.66 -34 15.32 -34 16 C-32.783125 15.649375 -31.56625 15.29875 -30.3125 14.9375 C-26.79784956 13.92480411 -24.55074715 14.23611523 -21 15 C-18.85570271 15.09124669 -16.70873187 15.13005591 -14.5625 15.125 C-13.47066406 15.12757813 -12.37882813 15.13015625 -11.25390625 15.1328125 C-8.08807476 15.00359489 -5.10964455 14.59097317 -2 14 C-1.93941406 13.15695312 -1.87882813 12.31390625 -1.81640625 11.4453125 C-1.69072266 9.80175781 -1.69072266 9.80175781 -1.5625 8.125 C-1.44068359 6.48917969 -1.44068359 6.48917969 -1.31640625 4.8203125 C-1 2 -1 2 0 0 Z " fill="#730535" transform="translate(698,570)"/>
<path d="M0 0 C0.99 0.33 1.98 0.66 3 1 C1.43910974 2.41844009 -0.1237889 3.83467025 -1.6875 5.25 C-2.55761719 6.03890625 -3.42773438 6.8278125 -4.32421875 7.640625 C-6.03160115 9.14611255 -7.77930622 10.6078352 -9.57421875 12.0078125 C-28.78011606 27.78077164 -37.47858747 54.01127638 -44 77 C-44.33 77 -44.66 77 -45 77 C-45.39176883 70.84839581 -44.04252133 65.92588123 -42.0625 60.125 C-41.75111084 59.20605957 -41.43972168 58.28711914 -41.11889648 57.34033203 C-33.57680314 35.90529887 -19.19515989 12.79677326 0 0 Z " fill="#6D0C36" transform="translate(429,226)"/>
<path d="M0 0 C13.76064858 4.87102605 25.06737947 18.65958085 32 31 C32.47308594 31.8353125 32.94617188 32.670625 33.43359375 33.53125 C38.51437185 43.05959351 41.15113428 53.47087516 41.09765625 64.2734375 C41.09443359 65.42714844 41.09121094 66.58085938 41.08789062 67.76953125 C41.07532227 69.55423828 41.07532227 69.55423828 41.0625 71.375 C41.05798828 72.58800781 41.05347656 73.80101562 41.04882812 75.05078125 C41.03708354 78.03390507 41.0206584 81.01692679 41 84 C40.67 84 40.34 84 40 84 C39.970271 83.15236084 39.970271 83.15236084 39.93994141 82.28759766 C39.84481764 79.73292003 39.73508942 77.17907459 39.625 74.625 C39.5940625 73.73554687 39.563125 72.84609375 39.53125 71.9296875 C39.47324219 70.65351562 39.47324219 70.65351562 39.4140625 69.3515625 C39.3826416 68.56604004 39.3512207 67.78051758 39.31884766 66.97119141 C39.1600535 64.76997061 39.1600535 64.76997061 37 63 C37.23009766 61.68322266 37.23009766 61.68322266 37.46484375 60.33984375 C39.40772985 48.21453269 31.63760449 33.9840795 24.81982422 24.32861328 C21.81100879 20.29765851 18.79963204 16.32800434 14.734375 13.328125 C14.16203125 12.88984375 13.5896875 12.4515625 13 12 C13 11.34 13 10.68 13 10 C12.43796875 9.74347656 11.8759375 9.48695313 11.296875 9.22265625 C8.71960738 7.85074338 6.54832724 6.23635416 4.25 4.4375 C3.45078125 3.81746094 2.6515625 3.19742188 1.828125 2.55859375 C1.22484375 2.04425781 0.6215625 1.52992188 0 1 C0 0.67 0 0.34 0 0 Z " fill="#710B37" transform="translate(509,544)"/>
<path d="M0 0 C0.33 0.66 0.66 1.32 1 2 C-0.27272219 4.11100555 -1.59454451 6.10502007 -3 8.125 C-14.98200947 26.18351633 -18.94097465 45.00782271 -20.31762695 66.43579102 C-20.38038818 67.36319092 -20.44314941 68.29059082 -20.5078125 69.24609375 C-20.55566895 70.06779053 -20.60352539 70.8894873 -20.65283203 71.73608398 C-21.02512837 74.16386456 -21.79113448 75.87611158 -23 78 C-23.33 78 -23.66 78 -24 78 C-24.69621618 54.27211962 -19.56510898 30.85864932 -7.83203125 10.234375 C-5.95573157 7.02591523 -5.95573157 7.02591523 -4.44921875 3.640625 C-3 1 -3 1 0 0 Z " fill="#760C39" transform="translate(442,260)"/>
<path d="M0 0 C0 0.66 0 1.32 0 2 C-1.43359375 3.375 -1.43359375 3.375 -3.4375 5 C-18.45225469 17.86219694 -27.62077806 34.38130412 -29.17529297 54.23925781 C-29.52705782 59.48963529 -29.78021911 64.74260986 -30 70 C-33.9864774 63.77410701 -32.5322999 53.90998474 -31.5703125 46.84375 C-27.80635045 29.92915512 -19.32846368 16.02025209 -7 4 C-6.67 3.01 -6.34 2.02 -6 1 C-3.90006779 0.25486277 -2.22568901 0 0 0 Z " fill="#6E0C35" transform="translate(344,431)"/>
<path d="M0 0 C1 3 1 3 -0.046875 5.27734375 C-12.11930542 24.13359402 -30.97761545 40.34178658 -53.3125 45.375 C-54.529375 45.58125 -55.74625 45.7875 -57 46 C-55.42941011 42.85882022 -52.26280357 42.41416508 -49.125 41.25 C-27.2523069 32.76769451 -12.4195134 19.54546372 0 0 Z " fill="#730B38" transform="translate(541,652)"/>
<path d="M0 0 C0.66 0 1.32 0 2 0 C2.35191406 0.68964844 2.70382812 1.37929688 3.06640625 2.08984375 C8.36132301 13.02021339 8.36132301 13.02021339 17 21 C17 21.66 17 22.32 17 23 C17.59296875 23.268125 18.1859375 23.53625 18.796875 23.8125 C21.01904035 25.01026288 22.44756608 26.24810161 24.25 28 C31.44904454 34.47641317 40.30718975 39.75525818 49 44 C49 44.66 49 45.32 49 46 C38.26570944 44.27820903 26.74354228 33.97274558 19 27 C18.14792969 26.24203125 17.29585938 25.4840625 16.41796875 24.703125 C9.65642012 18.3466461 4.39035855 11.15503798 0 3 C0 2.01 0 1.02 0 0 Z " fill="#730A38" transform="translate(320,522)"/>
<path d="M0 0 C1.33678551 0.00213753 1.33678551 0.00213753 2.70057678 0.00431824 C3.7144194 0.00124161 4.72826202 -0.00183502 5.77282715 -0.00500488 C6.88086197 0.00218063 7.98889679 0.00936615 9.13050842 0.01676941 C10.28442581 0.01722763 11.4383432 0.01768585 12.62722778 0.01815796 C15.09130368 0.02118934 17.55537751 0.02910177 20.01942444 0.04142761 C23.68868778 0.05924303 27.35769153 0.06194017 31.0269928 0.06169128 C47.32006635 0.08687123 63.57640074 0.53058138 79.85316467 1.24723816 C79.85316467 1.57723816 79.85316467 1.90723816 79.85316467 2.24723816 C51.98163509 5.81615353 23.81596162 3.53725284 -4.14683533 2.24723816 C-2.14683533 0.24723816 -2.14683533 0.24723816 0 0 Z " fill="#520322" transform="translate(646.1468353271484,698.7527618408203)"/>
<path d="M0 0 C2.40178549 0.22198788 4.77981479 0.38179671 7.1875 0.5 C8.32227783 0.55982056 8.32227783 0.55982056 9.47998047 0.62084961 C22.64398304 1.27408363 35.82612982 1.60928155 49 2 C49 2.33 49 2.66 49 3 C32.60653493 4.09681487 16.45247986 4.53397737 0.0625 3.125 C-1.35047363 3.00741333 -1.35047363 3.00741333 -2.79199219 2.88745117 C-3.6740332 2.80342041 -4.55607422 2.71938965 -5.46484375 2.6328125 C-6.244646 2.55949707 -7.02444824 2.48618164 -7.82788086 2.41064453 C-10.17002828 1.96785573 -11.92807258 1.15928922 -14 0 C-12.04235617 -0.19456705 -10.08384679 -0.38044247 -8.125 -0.5625 C-6.48917969 -0.71912109 -6.48917969 -0.71912109 -4.8203125 -0.87890625 C-2 -1 -2 -1 0 0 Z " fill="#6A0831" transform="translate(385,705)"/>
<path d="M0 0 C0 0.33 0 0.66 0 1 C-6.2792779 1.56716058 -12.44445902 2.06647318 -18.75 1.8125 C-33.00379124 1.75630897 -50.00541315 6.90546216 -61.29296875 15.80859375 C-61.85628906 16.20175781 -62.41960937 16.59492188 -63 17 C-63.99 16.67 -64.98 16.34 -66 16 C-52.76834422 7.34104879 -52.76834422 7.34104879 -47 5 C-45.9378125 4.55398437 -44.875625 4.10796875 -43.78125 3.6484375 C-29.71009125 -1.61797178 -14.77480725 -0.47192259 0 0 Z " fill="#8B1148" transform="translate(523,230)"/>
<path d="M0 0 C6.842959 0.45171218 12.35440112 3.16069301 18.5 6.0625 C19.56065674 6.55621094 20.62131348 7.04992187 21.71411133 7.55859375 C29.96315707 11.43134985 38.0685717 15.51011268 46 20 C46.95519531 20.5259375 47.91039062 21.051875 48.89453125 21.59375 C49.58933594 22.0578125 50.28414063 22.521875 51 23 C51 23.66 51 24.32 51 25 C46.98578704 23.5335532 43.52760188 21.58416403 39.875 19.375 C32.72997067 15.16976693 25.26504161 12.0268017 17.6015625 8.8984375 C11.64062438 6.46494591 5.81780908 3.7574535 0 1 C0 0.67 0 0.34 0 0 Z " fill="#700936" transform="translate(406,585)"/>
<path d="M0 0 C0 0.33 0 0.66 0 1 C-21.28996887 1.58163397 -42.57607475 2.1012346 -63.875 2.125 C-65.05610855 2.12874634 -65.05610855 2.12874634 -66.26107788 2.13256836 C-68.48399358 2.13841222 -70.70677061 2.13701228 -72.9296875 2.1328125 C-74.17991699 2.13168457 -75.43014648 2.13055664 -76.71826172 2.12939453 C-79.60972884 2.01538787 -82.19258684 1.67071531 -85 1 C-85 0.67 -85 0.34 -85 0 C-56.6219356 -1.03299434 -28.38138412 -0.87403564 0 0 Z " fill="#650833" transform="translate(701,528)"/>
<path d="M0 0 C5.8722263 0.77886422 9.00800285 3.82858725 13 8 C15.87028359 12.42502053 15.51207433 17.88725782 15 23 C13.06274517 29.21960762 9.9799251 32.83136341 4.76171875 36.62890625 C1.35463437 38.32040076 -1.03030045 38.30211211 -4.8125 38.1875 C-6.55466797 38.14689453 -6.55466797 38.14689453 -8.33203125 38.10546875 C-9.21246094 38.07066406 -10.09289062 38.03585937 -11 38 C-11 37.67 -11 37.34 -11 37 C-10.38253906 36.98582031 -9.76507812 36.97164063 -9.12890625 36.95703125 C-2.47008854 36.58202934 2.7094254 35.18927132 8 31 C11.50235843 26.93649022 12.90666639 22.32001556 13 17 C11.78637553 11.3829593 9.45178333 7.70981944 5 4 C3.3497306 2.9731657 1.68756133 1.96432076 0 1 C0 0.67 0 0.34 0 0 Z " fill="#6B0931" transform="translate(630,352)"/>
<path d="M0 0 C1.18851563 0.00902344 2.37703125 0.01804687 3.6015625 0.02734375 C4.51679687 0.03894531 5.43203125 0.05054688 6.375 0.0625 C6.375 0.3925 6.375 0.7225 6.375 1.0625 C5.37339844 1.20945312 4.37179687 1.35640625 3.33984375 1.5078125 C-7.45489613 3.21132192 -7.45489613 3.21132192 -15.625 10.0625 C-18.2621978 14.30494864 -18.19954468 19.20030843 -17.625 24.0625 C-16.25560976 27.42373058 -14.63504034 30.04743949 -12.625 33.0625 C-13.615 33.0625 -14.605 33.0625 -15.625 33.0625 C-19.92676653 28.24452148 -21.09756873 23.99842978 -20.9296875 17.65625 C-20.32401966 12.50030838 -18.50218324 8.76532037 -14.6484375 5.26953125 C-9.47732633 1.3112807 -6.60418154 -0.06474688 0 0 Z " fill="#6E0A33" transform="translate(622.625,350.9375)"/>
<path d="M0 0 C5.11457743 0.87486193 7.74574626 4.17814386 11 8 C15.91964109 15.08487235 16.65146147 21.5424301 16 30 C14.95664994 34.74904166 13.51234044 39.48765956 10 43 C9.34 43 8.68 43 8 43 C9.0367015 40.28862684 10.12107072 37.78476317 11.546875 35.25 C14.24402645 29.21766128 14.12981346 21.8510846 12.2734375 15.5234375 C9.39835612 9.46940435 4.78800036 4.61066701 0 0 Z " fill="#6C0B34" transform="translate(458,611)"/>
<path d="M0 0 C2.475 0.495 2.475 0.495 5 1 C5 1.66 5 2.32 5 3 C4.4423999 3.20044922 3.8847998 3.40089844 3.31030273 3.60742188 C-15.95097824 10.24215598 -15.95097824 10.24215598 -33.21484375 20.79296875 C-33.80394531 21.19128906 -34.39304687 21.58960938 -35 22 C-35.99 21.67 -36.98 21.34 -38 21 C-27.42372723 13.24406664 -15.35783421 7.70301559 -3.16015625 3.0078125 C-0.83993938 2.19777232 -0.83993938 2.19777232 0 0 Z " fill="#700B36" transform="translate(383,408)"/>
<path d="M0 0 C0.99515625 -0.00451172 1.9903125 -0.00902344 3.015625 -0.01367188 C8.11894344 -0.00321426 12.97109901 0.24494233 18 1.125 C18 1.455 18 1.785 18 2.125 C16.68394775 2.16258423 16.68394775 2.16258423 15.34130859 2.20092773 C12.06482809 2.29645384 8.78850102 2.39566243 5.51220703 2.49731445 C4.09818835 2.54044251 2.68412498 2.58213168 1.27001953 2.62231445 C-0.7706444 2.6805575 -2.81108795 2.74409141 -4.8515625 2.80859375 C-6.07697754 2.84525146 -7.30239258 2.88190918 -8.56494141 2.91967773 C-11.96576024 3.06207838 -11.96576024 3.06207838 -15.15039062 3.65234375 C-17.80826571 4.0931976 -20.06383269 4.16901031 -22.7421875 4.00390625 C-23.58007812 3.95556641 -24.41796875 3.90722656 -25.28125 3.85742188 C-26.1371875 3.80134766 -26.993125 3.74527344 -27.875 3.6875 C-29.19371094 3.60918945 -29.19371094 3.60918945 -30.5390625 3.52929688 C-32.69307499 3.40052439 -34.84659659 3.26358537 -37 3.125 C-36.67 2.465 -36.34 1.805 -36 1.125 C-24.00127804 0.48849895 -12.0170676 0.0224199 0 0 Z " fill="#5A0527" transform="translate(564,698.875)"/>
<path d="M0 0 C1.65 0 3.3 0 5 0 C5 0.66 5 1.32 5 2 C5.825 2.2475 6.65 2.495 7.5 2.75 C10.92689857 3.97389235 13.97573322 5.47012012 17.16796875 7.1953125 C19.12429281 8.20107487 19.12429281 8.20107487 22 8 C22 8.66 22 9.32 22 10 C22.61488281 10.18175781 23.22976563 10.36351562 23.86328125 10.55078125 C24.67152344 10.80214844 25.47976563 11.05351563 26.3125 11.3125 C27.11300781 11.55613281 27.91351563 11.79976562 28.73828125 12.05078125 C31.09964573 13.04182023 32.33879993 14.08074943 34 16 C21.86339926 14.30941779 10.79544683 7.52102166 0 2 C0 1.34 0 0.68 0 0 Z " fill="#720B38" transform="translate(370,568)"/>
<path d="M0 0 C0.88252441 -0.00402832 1.76504883 -0.00805664 2.67431641 -0.01220703 C4.07302979 0.00156982 4.07302979 0.00156982 5.5 0.015625 C6.44665527 0.02094238 7.39331055 0.02625977 8.36865234 0.03173828 C24.47709475 0.25035483 24.47709475 0.25035483 30.5 4.265625 C17.96 3.605625 5.42 2.945625 -7.5 2.265625 C-4.35477251 0.16880667 -3.59036272 0.01019989 0 0 Z " fill="#750A39" transform="translate(448.5,429.734375)"/>
<path d="M0 0 C4.6117647 1.37238315 8.45958319 3.29450095 12.625 5.6875 C21.61874005 10.69778536 31.23214252 13.8480191 41 17 C41 17.33 41 17.66 41 18 C35.48769151 17.4689138 30.61870152 16.44352806 25.4375 14.4375 C24.75929199 14.17864014 24.08108398 13.91978027 23.38232422 13.65307617 C18.31357308 11.65521274 13.444768 9.34974636 8.625 6.8125 C7.98876709 6.47984131 7.35253418 6.14718262 6.69702148 5.80444336 C3.5785535 4.10365492 2.00941387 3.0141208 0 0 Z " fill="#700935" transform="translate(331,651)"/>
<path d="M0 0 C4.50718159 1.39736329 8.63294209 3.18930666 12.875 5.25 C20.73596003 9.0097627 28.80334226 12.05954328 37 15 C37 15.66 37 16.32 37 17 C23.98187944 13.38548797 11.95053676 8.21714581 0 2 C0 1.34 0 0.68 0 0 Z " fill="#700B37" transform="translate(295,680)"/>
<path d="M0 0 C0.66 0 1.32 0 2 0 C3.41015625 1.43359375 3.41015625 1.43359375 5.0625 3.4375 C11.96260208 11.50662764 19.07436065 18.20485629 28 24 C27.01 24.33 26.02 24.66 25 25 C22.82549673 23.64284158 20.92472865 22.28437502 18.9375 20.6875 C18.36475342 20.23544189 17.79200684 19.78338379 17.2019043 19.31762695 C2.47815238 7.48746576 2.47815238 7.48746576 0 0 Z " fill="#730B37" transform="translate(302,625)"/>
<path d="M0 0 C0.33 0 0.66 0 1 0 C1.061875 0.99 1.12375 1.98 1.1875 3 C1.99466501 8.3774642 4.4457003 12.80519433 8.58203125 16.359375 C14.95706616 20.19272932 22.77097509 19.81174414 30 20 C27.2758438 22.7241562 25.6781266 22.3308802 21.875 22.375 C15.17551259 22.25668676 10.37541626 21.23693764 5.4765625 16.5390625 C0.50120839 10.87348585 -0.24386037 7.31581107 0 0 Z " fill="#760B39" transform="translate(378,368)"/>
<path d="M0 0 C0.33 0 0.66 0 1 0 C1.05784708 4.12494151 1.09354407 8.24977944 1.125 12.375 C1.15013672 14.1384375 1.15013672 14.1384375 1.17578125 15.9375 C1.18222656 17.05898438 1.18867188 18.18046875 1.1953125 19.3359375 C1.20578613 20.37282715 1.21625977 21.4097168 1.22705078 22.47802734 C1 25 1 25 -1 27 C-1.69748583 28.31747324 -2.36959957 29.64914193 -3 31 C-3.23652909 24.06181337 -2.93250323 17.31601203 -2.0625 10.4375 C-1.97564941 9.74720703 -1.88879883 9.05691406 -1.79931641 8.34570312 C-1.40957349 5.43235678 -0.93207226 2.79621677 0 0 Z " fill="#770C3C" transform="translate(295,407)"/>
<path d="M0 0 C5.23250555 0.5606256 9.15369001 2.30019244 13.75 4.6875 C14.79800781 5.22334717 14.79800781 5.22334717 15.8671875 5.77001953 C28.22784482 12.15274825 28.22784482 12.15274825 32 15 C32 15.66 32 16.32 32 17 C28.55916758 15.68287815 25.33422056 14.18440093 22.09375 12.43359375 C20.73056641 11.7055957 20.73056641 11.7055957 19.33984375 10.96289062 C17.44498378 9.94508757 15.55175259 8.92424641 13.66015625 7.90039062 C12.75136719 7.41634766 11.84257812 6.93230469 10.90625 6.43359375 C10.08447266 5.99072021 9.26269531 5.54784668 8.41601562 5.09155273 C5.937689 3.97184797 3.67814379 3.42479462 1 3 C0.67 2.01 0.34 1.02 0 0 Z " fill="#760938" transform="translate(500,439)"/>
<path d="M0 0 C-1.00417969 0.4846875 -2.00835937 0.969375 -3.04296875 1.46875 C-11.07339617 5.38925596 -18.78996657 9.53370967 -26.328125 14.3359375 C-28.5153288 15.69814338 -30.67244349 16.90272336 -33 18 C-31.61611181 14.66695476 -30.25876475 13.20062048 -27.18359375 11.34375 C-26.41853516 10.87839844 -25.65347656 10.41304687 -24.86523438 9.93359375 C-24.06408203 9.46050781 -23.26292969 8.98742187 -22.4375 8.5 C-21.66341797 8.02691406 -20.88933594 7.55382812 -20.09179688 7.06640625 C-5.29947977 -1.82622735 -5.29947977 -1.82622735 0 0 Z " fill="#700D37" transform="translate(466,207)"/>
<path d="M0 0 C-2.99236784 1.99491189 -4.73563359 2.53509351 -8.19140625 3.25390625 C-9.21943359 3.46853516 -10.24746094 3.68316406 -11.30664062 3.90429688 C-12.38107422 4.12150391 -13.45550781 4.33871094 -14.5625 4.5625 C-15.60986328 4.78357422 -16.65722656 5.00464844 -17.73632812 5.23242188 C-24.1436307 6.5505183 -30.47675172 7.50409118 -37 8 C-32.66422528 5.10948352 -28.00566552 4.19427376 -23 2.875 C-22.00871094 2.59785156 -21.01742188 2.32070313 -19.99609375 2.03515625 C-13.20462081 0.23767384 -7.01462684 -0.35729029 0 0 Z " fill="#740A38" transform="translate(426,401)"/>
<path d="M0 0 C4.00298439 0.53093685 6.17853328 1.57277622 9.1875 4.25 C9.86167969 4.83265625 10.53585937 5.4153125 11.23046875 6.015625 C14.89018784 10.11968085 15.24283001 13.95123467 15.125 19.3125 C15.10695313 20.38113281 15.08890625 21.44976562 15.0703125 22.55078125 C15.03550781 23.76314453 15.03550781 23.76314453 15 25 C14.34 25.33 13.68 25.66 13 26 C12.96132813 24.71416016 12.96132813 24.71416016 12.921875 23.40234375 C12.58140646 16.53880753 12.26182423 11.51530194 8 6 C7.01 5.67 6.02 5.34 5 5 C3.29413425 3.37347684 1.6222454 1.70993434 0 0 Z " fill="#750C39" transform="translate(406,352)"/>
<path d="M0 0 C-0.51949219 0.29132813 -1.03898437 0.58265625 -1.57421875 0.8828125 C-7.67619033 4.46955365 -12.16616828 8.32868782 -15 15 C-15.43473339 17.07169246 -15.80654223 19.15727751 -16.125 21.25 C-16.29257812 22.32765625 -16.46015625 23.4053125 -16.6328125 24.515625 C-16.75398438 25.33546875 -16.87515625 26.1553125 -17 27 C-17.33 27 -17.66 27 -18 27 C-18.69827359 18.83795759 -17.77121507 12.78889308 -13 6 C-5.6980057 -1.70940171 -5.6980057 -1.70940171 0 0 Z " fill="#6C0D36" transform="translate(319,339)"/>
<path d="M0 0 C0.33 0 0.66 0 1 0 C0.97679687 1.26714844 0.95359375 2.53429687 0.9296875 3.83984375 C0.91091167 5.53905655 0.89271343 7.2382758 0.875 8.9375 C0.85824219 9.76830078 0.84148437 10.59910156 0.82421875 11.45507812 C0.77892712 17.27505267 1.5543305 22.3596123 3 28 C2.34 28.33 1.68 28.66 1 29 C-0.48046875 27.97265625 -0.48046875 27.97265625 -2 26 C-2.2761722 23.38378808 -2.37754222 21.04641566 -2.3125 18.4375 C-2.30412109 17.72529297 -2.29574219 17.01308594 -2.28710938 16.27929688 C-2.16096033 10.70350915 -1.45263364 5.39549639 0 0 Z " fill="#73143E" transform="translate(261,684)"/>
<path d="M0 0 C0 0.33 0 0.66 0 1 C-5.94 1 -11.88 1 -18 1 C-18.33 1.66 -18.66 2.32 -19 3 C-22.74993479 3.05811773 -26.49975352 3.09363593 -30.25 3.125 C-31.84521484 3.15013672 -31.84521484 3.15013672 -33.47265625 3.17578125 C-35.00986328 3.18544922 -35.00986328 3.18544922 -36.578125 3.1953125 C-37.99206543 3.21102295 -37.99206543 3.21102295 -39.43457031 3.22705078 C-42.09951941 2.99119213 -43.71863092 2.35661659 -46 1 C-30.65339809 0.1541243 -15.36899312 -0.13154919 0 0 Z " fill="#67072F" transform="translate(336,729)"/>
<path d="M0 0 C5.49471751 -0.32321868 9.46054055 -0.5464527 14 3 C15.87643761 4.87643761 15.17984987 7.49805701 15.23046875 9.9921875 C15 12 15 12 13 15 C13 11.7 13 8.4 13 5 C8.71 4.01 4.42 3.02 0 2 C0 1.34 0 0.68 0 0 Z " fill="#750B38" transform="translate(526,405)"/>
<path d="M0 0 C0.33 0 0.66 0 1 0 C1.05398987 2.27057377 1.09278742 4.54151288 1.125 6.8125 C1.14820313 8.07707031 1.17140625 9.34164062 1.1953125 10.64453125 C1 14 1 14 -1 17 C-3.6015625 17.51171875 -3.6015625 17.51171875 -6.625 17.6875 C-8.12933594 17.78611328 -8.12933594 17.78611328 -9.6640625 17.88671875 C-10.82035156 17.94279297 -10.82035156 17.94279297 -12 18 C-11.505 16.515 -11.505 16.515 -11 15 C-6.545 14.505 -6.545 14.505 -2 14 C-1.93941406 13.15695312 -1.87882813 12.31390625 -1.81640625 11.4453125 C-1.73261719 10.34960938 -1.64882813 9.25390625 -1.5625 8.125 C-1.48128906 7.03445313 -1.40007813 5.94390625 -1.31640625 4.8203125 C-1 2 -1 2 0 0 Z " fill="#7E0E3F" transform="translate(698,570)"/>
<path d="M0 0 C0.33 0.66 0.66 1.32 1 2 C0.16807129 2.3853894 0.16807129 2.3853894 -0.68066406 2.77856445 C-3.20603979 3.95173931 -5.72802248 5.13203883 -8.25 6.3125 C-9.55904297 6.91868164 -9.55904297 6.91868164 -10.89453125 7.53710938 C-11.73886719 7.93349609 -12.58320313 8.32988281 -13.453125 8.73828125 C-14.22817383 9.09962158 -15.00322266 9.46096191 -15.80175781 9.83325195 C-18.07583797 10.94951592 -18.07583797 10.94951592 -20.09667969 12.70385742 C-20.72477539 13.13158447 -21.35287109 13.55931152 -22 14 C-22.99 13.67 -23.98 13.34 -25 13 C-16.96591161 7.74239804 -9.25204651 2.77561395 0 0 Z " fill="#700B36" transform="translate(482,233)"/>
<path d="M0 0 C0.6953125 1.60546875 0.6953125 1.60546875 1 4 C-1.98591533 11.09386716 -6.13678436 18.02519221 -11 24 C-11.66 24 -12.32 24 -13 24 C-11.70621449 21.37172561 -10.35135701 18.7980211 -8.90625 16.25 C-8.51566406 15.5590625 -8.12507812 14.868125 -7.72265625 14.15625 C-6.90755208 12.71875 -6.09244792 11.28125 -5.27734375 9.84375 C-4.88675781 9.1528125 -4.49617187 8.461875 -4.09375 7.75 C-3.73990234 7.12609375 -3.38605469 6.5021875 -3.02148438 5.859375 C-1.96165023 3.93019315 -0.97204347 1.97466808 0 0 Z " fill="#6E0A34" transform="translate(559,659)"/>
<path d="M0 0 C5.25510081 0.37536434 8.49173937 2.16653543 12 6 C15.1435934 10.16235052 16.51507566 13.72047448 16 19 C15.71253906 18.41992188 15.42507813 17.83984375 15.12890625 17.2421875 C11.6500902 10.33270511 8.55121339 6.17503314 1.79296875 2.12890625 C1.20128906 1.75636719 0.60960937 1.38382812 0 1 C0 0.67 0 0.34 0 0 Z " fill="#6C0C35" transform="translate(706,338)"/>
<path d="M0 0 C7.03128878 0.43384548 13.329015 1.74321997 20 4 C20 4.33 20 4.66 20 5 C13.50321562 5.29530838 7.3778552 4.17293889 1 3 C0.67 2.01 0.34 1.02 0 0 Z " fill="#7D083D" transform="translate(339,698)"/>
<path d="M0 0 C-3.06861273 1.66066101 -6.07564723 2.70177275 -9.4375 3.625 C-10.36433594 3.88539063 -11.29117187 4.14578125 -12.24609375 4.4140625 C-14.92391659 4.98381204 -17.27258425 5.10889863 -20 5 C-20 4.34 -20 3.68 -20 3 C-13.16914355 0.55833216 -7.2484945 -0.41640288 0 0 Z " fill="#760A38" transform="translate(440,432)"/>
<path d="M0 0 C5.83978744 0.78475329 9.1067943 3.74098974 13 8 C14.625 11.25 14.625 11.25 15 14 C14.01 15.485 14.01 15.485 13 17 C12.608125 15.783125 12.21625 14.56625 11.8125 13.3125 C9.51685886 7.2123456 5.55256261 4.17289292 0 1 C0 0.67 0 0.34 0 0 Z " fill="#760C3A" transform="translate(630,352)"/>
<path d="M0 0 C0.33 0 0.66 0 1 0 C1.30071865 7.55137932 0.42625566 14.58856436 -1 22 C-1.33 22 -1.66 22 -2 22 C-2.2137731 14.31604457 -2.01670288 7.43659188 0 0 Z " fill="#720C38" transform="translate(298,383)"/>
<path d="M0 0 C0.90105469 0.00902344 1.80210937 0.01804687 2.73046875 0.02734375 C3.41753906 0.03894531 4.10460937 0.05054688 4.8125 0.0625 C4.8125 0.3925 4.8125 0.7225 4.8125 1.0625 C3.92046875 1.24425781 3.0284375 1.42601562 2.109375 1.61328125 C0.35367187 1.99033203 0.35367187 1.99033203 -1.4375 2.375 C-2.59765625 2.61863281 -3.7578125 2.86226563 -4.953125 3.11328125 C-8.07021103 4.02807824 -9.71766967 5.0401848 -12.1875 7.0625 C-12.8475 7.0625 -13.5075 7.0625 -14.1875 7.0625 C-14.1875 7.7225 -14.1875 8.3825 -14.1875 9.0625 C-14.8475 9.0625 -15.5075 9.0625 -16.1875 9.0625 C-14.68114535 4.84470697 -11.94737578 3.2877326 -8.1875 1.0625 C-5.17259443 0.05753148 -3.14568308 -0.04085303 0 0 Z " fill="#6D0A33" transform="translate(398.1875,350.9375)"/>
<path d="M0 0 C0 0.66 0 1.32 0 2 C2.97 2 5.94 2 9 2 C9 2.33 9 2.66 9 3 C7.58456585 3.19658808 6.16755969 3.38187546 4.75 3.5625 C3.96109375 3.66691406 3.1721875 3.77132812 2.359375 3.87890625 C-0.06439143 4.00330486 -1.66935625 3.61693511 -4 3 C-6.24707241 2.7801777 -8.49771238 2.59516013 -10.75 2.4375 C-11.92046875 2.35371094 -13.0909375 2.26992188 -14.296875 2.18359375 C-15.18890625 2.12300781 -16.0809375 2.06242188 -17 2 C-17 1.67 -17 1.34 -17 1 C-14.54171921 0.83252588 -12.08338135 0.6659856 -9.625 0.5 C-8.92632813 0.45230469 -8.22765625 0.40460937 -7.5078125 0.35546875 C-2.2265625 0 -2.2265625 0 0 0 Z " fill="#68052F" transform="translate(600,699)"/>
<path d="M0 0 C1.99023038 1.99023038 2.56144613 3.15783215 3.625 5.6875 C6.00499825 10.65642764 9.71011076 13.66804719 14 17 C13.01 17.33 12.02 17.66 11 18 C9.53548421 16.58972554 8.0786107 15.17151204 6.625 13.75 C5.81289063 12.96109375 5.00078125 12.1721875 4.1640625 11.359375 C1.39281933 8.33801963 0.061654 6.35638794 -0.125 2.25 C-0.063125 1.13625 -0.063125 1.13625 0 0 Z " fill="#6B0933" transform="translate(390,475)"/>
<path d="M0 0 C0 0.66 0 1.32 0 2 C-3.46712111 3.15570704 -6.5414956 3.32835293 -10.1875 3.5625 C-12.09595703 3.68818359 -12.09595703 3.68818359 -14.04296875 3.81640625 C-15.01878906 3.87699219 -15.99460937 3.93757812 -17 4 C-17 3.34 -17 2.68 -17 2 C-11.19233704 0.4943096 -6.0018137 -0.21824777 0 0 Z " fill="#750B38" transform="translate(493,199)"/>
<path d="M0 0 C6.93 0 13.86 0 21 0 C21 0.33 21 0.66 21 1 C19.35 1.33 17.7 1.66 16 2 C16 2.33 16 2.66 16 3 C13.66705225 3.04241723 11.33297433 3.04092937 9 3 C8.67 2.67 8.34 2.34 8 2 C6.65252916 1.76924918 5.29622435 1.58846937 3.9375 1.4375 C2.638125 1.293125 1.33875 1.14875 0 1 C0 0.67 0 0.34 0 0 Z " fill="#7B093A" transform="translate(560,729)"/>
<path d="M0 0 C0.33 0 0.66 0 1 0 C1.33 1.98 1.66 3.96 2 6 C2.33 6 2.66 6 3 6 C2.88541307 7.43836751 2.75790884 8.87570966 2.625 10.3125 C2.55539062 11.11300781 2.48578125 11.91351562 2.4140625 12.73828125 C2 15 2 15 0 18 C0.020625 16.906875 0.04125 15.81375 0.0625 14.6875 C0.18544452 11.05615809 0.18544452 11.05615809 -1 8 C-0.83988879 5.29876894 -0.39559392 2.68124769 0 0 Z " fill="#960C4C" transform="translate(548,621)"/>
<path d="M0 0 C5.75 1.875 5.75 1.875 8 3 C10.0374763 3.22858114 12.08040303 3.41024278 14.125 3.5625 C15.76855469 3.68818359 15.76855469 3.68818359 17.4453125 3.81640625 C18.28835938 3.87699219 19.13140625 3.93757813 20 4 C20 4.33 20 4.66 20 5 C11.9703351 6.23121528 6.95268716 6.41228224 0 2 C0 1.34 0 0.68 0 0 Z " fill="#850E44" transform="translate(609,384)"/>
<path d="M0 0 C0.33 0 0.66 0 1 0 C1.09796875 0.65226562 1.1959375 1.30453125 1.296875 1.9765625 C2.26486738 7.63431108 3.43491083 11.48422039 7 16 C6.01 16 5.02 16 4 16 C1.17908127 13.06624452 -0.05791252 9.9253645 -1 6 C-0.625 2.625 -0.625 2.625 0 0 Z " fill="#790C3C" transform="translate(603,368)"/>
<path d="M0 0 C1.65 0 3.3 0 5 0 C5 0.66 5 1.32 5 2 C5.94875 2.28875 6.8975 2.5775 7.875 2.875 C11 4 11 4 13 6 C10 7 10 7 7.51953125 6.00390625 C6.62621094 5.52824219 5.73289062 5.05257812 4.8125 4.5625 C3.91144531 4.08941406 3.01039063 3.61632812 2.08203125 3.12890625 C1.39496094 2.75636719 0.70789063 2.38382813 0 2 C0 1.34 0 0.68 0 0 Z " fill="#7B0D3E" transform="translate(370,568)"/>
<path d="M0 0 C0.33 0 0.66 0 1 0 C1.40214229 6.16618181 -0.03181664 11.17745757 -2 17 C-2.33 17 -2.66 17 -3 17 C-3.40214229 10.83381819 -1.96818336 5.82254243 0 0 Z " fill="#760D3A" transform="translate(387,286)"/>
<path d="M0 0 C0 0.66 0 1.32 0 2 C-5.47619048 7 -5.47619048 7 -8 7 C-8.66 8.32 -9.32 9.64 -10 11 C-10.66 11 -11.32 11 -12 11 C-10.5611898 7.612801 -8.77880501 5.6405896 -6 3.25 C-5.29875 2.63640625 -4.5975 2.0228125 -3.875 1.390625 C-2 0 -2 0 0 0 Z " fill="#740B38" transform="translate(456,248)"/>
<path d="M0 0 C0.33 0 0.66 0 1 0 C1.061875 0.99 1.12375 1.98 1.1875 3 C1.73617723 7.1446234 3.64952457 9.9409061 6.0390625 13.30078125 C6.35617187 13.86152344 6.67328125 14.42226563 7 15 C6.67 15.66 6.34 16.32 6 17 C0.92249785 10.90699742 -0.26135822 7.84074663 0 0 Z " fill="#62072C" transform="translate(378,368)"/>
<path d="M0 0 C0.33 0 0.66 0 1 0 C1.3690205 9.41002278 1.3690205 9.41002278 -1 14 C-1.33 14 -1.66 14 -2 14 C-2.21192221 8.80790596 -1.5912689 4.873261 0 0 Z " fill="#6D0B35" transform="translate(314,474)"/>
<path d="M0 0 C2.375 0.3125 2.375 0.3125 5 1 C5.66 1.99 6.32 2.98 7 4 C6.01 4 5.02 4 4 4 C3.34 4.66 2.68 5.32 2 6 C1.34 6 0.68 6 0 6 C0 4.02 0 2.04 0 0 Z " fill="#860C43" transform="translate(296,621)"/>
<path d="M0 0 C1.4370809 -0.05422947 2.87475462 -0.09289723 4.3125 -0.125 C5.11300781 -0.14820313 5.91351562 -0.17140625 6.73828125 -0.1953125 C9 0 9 0 12 2 C3.42857143 3.28571429 3.42857143 3.28571429 0 2 C0 1.34 0 0.68 0 0 Z " fill="#82083E" transform="translate(526,405)"/>
<path d="M0 0 C1.62580966 0.11398665 3.25067157 0.24155659 4.875 0.375 C5.77992188 0.44460938 6.68484375 0.51421875 7.6171875 0.5859375 C10 1 10 1 12 3 C7.45194365 3.17835515 4.1205746 2.99785435 0 1 C0 0.67 0 0.34 0 0 Z " fill="#660931" transform="translate(347,700)"/>
<path d="M0 0 C0.33 0 0.66 0 1 0 C1 1.65 1 3.3 1 5 C1.66 5 2.32 5 3 5 C3 6.98 3 8.96 3 11 C2.34 11 1.68 11 1 11 C1 10.34 1 9.68 1 9 C0.34 8.67 -0.32 8.34 -1 8 C-0.67 7.67 -0.34 7.34 0 7 C0.04092937 4.66702567 0.04241723 2.33294775 0 0 Z " fill="#841043" transform="translate(724,688)"/>
<path d="M0 0 C-1.10789408 3.32368224 -1.48436217 3.61563093 -4.375 5.25 C-5.28378906 5.78367187 -5.28378906 5.78367187 -6.2109375 6.328125 C-8 7 -8 7 -11 6 C-9.54550599 4.9944239 -8.08627557 3.99569565 -6.625 3 C-5.40683594 2.1646875 -5.40683594 2.1646875 -4.1640625 1.3125 C-2 0 -2 0 0 0 Z " fill="#6D0B34" transform="translate(462,658)"/>
<path d="M0 0 C0 0.66 0 1.32 0 2 C-1.53125 3.2890625 -1.53125 3.2890625 -3.5 4.625 C-4.1496875 5.07101562 -4.799375 5.51703125 -5.46875 5.9765625 C-5.9740625 6.31429688 -6.479375 6.65203125 -7 7 C-6.67 5.02 -6.34 3.04 -6 1 C-3.92446352 0.4465236 -2.15634036 0 0 0 Z " fill="#7A0D3B" transform="translate(344,431)"/>
<path d="M0 0 C2.91227269 3.28804981 4.49701212 5.59885603 5 10 C4.34 10 3.68 10 3 10 C0.96564469 6.27034861 0 4.33094958 0 0 Z " fill="#720D39" transform="translate(468,619)"/>
<path d="M0 0 C1.65 0.33 3.3 0.66 5 1 C5 1.66 5 2.32 5 3 C2.69 3.66 0.38 4.32 -2 5 C-1.34 3.35 -0.68 1.7 0 0 Z " fill="#7B0B3C" transform="translate(383,408)"/>
<path d="M0 0 C0.33 0 0.66 0 1 0 C1 1.65 1 3.3 1 5 C0.67 5 0.34 5 0 5 C0 3.35 0 1.7 0 0 Z " fill="#A2215E" transform="translate(272,573)"/>
<path d="M0 0 C0.33 1.32 0.66 2.64 1 4 C0.34 3.34 -0.32 2.68 -1 2 C-0.67 1.34 -0.34 0.68 0 0 Z " fill="#A61D5D" transform="translate(698,531)"/>
<path d="M0 0 C1 4 1 4 1 4 Z " fill="#A71B5D" transform="translate(721,674)"/>
<path d="M0 0 C0.99 1.485 0.99 1.485 2 3 C1.34 3 0.68 3 0 3 C0 2.01 0 1.02 0 0 Z " fill="#A71F5F" transform="translate(540,581)"/>
<path d="M0 0 C1 4 1 4 1 4 Z " fill="#A3215E" transform="translate(378,323)"/>
<path d="M0 0 C3 1 3 1 3 1 Z " fill="#A31E5C" transform="translate(316,688)"/>
<path d="" fill="#A61B5C" transform="translate(0,0)"/>
<path d="" fill="#A61E5F" transform="translate(0,0)"/>
<path d="M0 0 C0.66 0 1.32 0 2 0 C1.67 0.66 1.34 1.32 1 2 C0.67 1.34 0.34 0.68 0 0 Z " fill="#A81F60" transform="translate(499,541)"/>
<path d="" fill="#A12760" transform="translate(0,0)"/>
<path d="M0 0 C0.99 0.495 0.99 0.495 2 1 C1.01 1.495 1.01 1.495 0 2 C0 1.34 0 0.68 0 0 Z " fill="#A4185C" transform="translate(409,356)"/>
<path d="M0 0 C2 1 2 1 2 1 Z " fill="#A21B5A" transform="translate(433,704)"/>
<path d="M0 0 C2 1 2 1 2 1 Z " fill="#A31D5A" transform="translate(389,704)"/>
<path d="" fill="#A12A61" transform="translate(0,0)"/>
<path d="M0 0 C2 1 2 1 2 1 Z " fill="#A5215E" transform="translate(354,699)"/>
<path d="M0 0 C2 1 2 1 2 1 Z " fill="#A11E5C" transform="translate(342,696)"/>
<path d="M0 0 C2 1 2 1 2 1 Z " fill="#A51D5B" transform="translate(367,670)"/>
<path d="" fill="#A81B5D" transform="translate(0,0)"/>
<path d="M0 0 C2 1 2 1 2 1 Z " fill="#A3205B" transform="translate(429,592)"/>
<path d="M0 0 C2 1 2 1 2 1 Z " fill="#A81D5E" transform="translate(600,586)"/>
<path d="M0 0 C2 1 2 1 2 1 Z " fill="#A51C5B" transform="translate(606,584)"/>
<path d="" fill="#A61E5F" transform="translate(0,0)"/>
<path d="" fill="#A8185C" transform="translate(0,0)"/>
<path d="" fill="#A61F5E" transform="translate(0,0)"/>
<path d="M0 0 C2 1 2 1 2 1 Z " fill="#A71E60" transform="translate(417,434)"/>
<path d="M0 0 C2 1 2 1 2 1 Z " fill="#A61F5D" transform="translate(485,432)"/>
<path d="M0 0 C2 1 2 1 2 1 Z " fill="#A61F5C" transform="translate(424,432)"/>
<path d="" fill="#A61B5D" transform="translate(0,0)"/>
<path d="M0 0 C2 1 2 1 2 1 Z " fill="#A91B5D" transform="translate(514,405)"/>
<path d="M0 0 C2 1 2 1 2 1 Z " fill="#A81B5C" transform="translate(508,404)"/>
<path d="" fill="#A41A5C" transform="translate(0,0)"/>
<path d="" fill="#A7185C" transform="translate(0,0)"/>
<path d="" fill="#A51C5C" transform="translate(0,0)"/>
<path d="" fill="#605F5F" transform="translate(0,0)"/>
<path d="" fill="#A02C61" transform="translate(0,0)"/>
<path d="" fill="#A12A67" transform="translate(0,0)"/>
<path d="" fill="#A02C65" transform="translate(0,0)"/>
<path d="" fill="#9D2D64" transform="translate(0,0)"/>
<path d="" fill="#AA1D5E" transform="translate(0,0)"/>
<path d="" fill="#A21959" transform="translate(0,0)"/>
<path d="" fill="#A11C5A" transform="translate(0,0)"/>
<path d="" fill="#AB2160" transform="translate(0,0)"/>
<path d="" fill="#AC2361" transform="translate(0,0)"/>
<path d="" fill="#A51D5D" transform="translate(0,0)"/>
<path d="" fill="#A8235D" transform="translate(0,0)"/>
<path d="" fill="#A02A64" transform="translate(0,0)"/>
<path d="" fill="#A71D5D" transform="translate(0,0)"/>
<path d="" fill="#A51D5B" transform="translate(0,0)"/>
<path d="" fill="#A61D5D" transform="translate(0,0)"/>
<path d="" fill="#A61E5E" transform="translate(0,0)"/>
<path d="" fill="#A02A5F" transform="translate(0,0)"/>
<path d="" fill="#A2195B" transform="translate(0,0)"/>
<path d="" fill="#A41C5B" transform="translate(0,0)"/>
<path d="" fill="#A51D5D" transform="translate(0,0)"/>
<path d="" fill="#A71B5D" transform="translate(0,0)"/>
<path d="" fill="#A91F5E" transform="translate(0,0)"/>
<path d="" fill="#A81D5F" transform="translate(0,0)"/>
<path d="" fill="#A61C5E" transform="translate(0,0)"/>
<path d="" fill="#A51C5E" transform="translate(0,0)"/>
<path d="" fill="#A61E5C" transform="translate(0,0)"/>
<path d="" fill="#A71C5C" transform="translate(0,0)"/>
<path d="" fill="#A82260" transform="translate(0,0)"/>
<path d="" fill="#A71A5D" transform="translate(0,0)"/>
<path d="" fill="#A92060" transform="translate(0,0)"/>
<path d="" fill="#AB1F5D" transform="translate(0,0)"/>
<path d="" fill="#AC1E5F" transform="translate(0,0)"/>
<path d="" fill="#AB215F" transform="translate(0,0)"/>
<path d="" fill="#AA1F5E" transform="translate(0,0)"/>
<path d="" fill="#A51E5D" transform="translate(0,0)"/>
<path d="" fill="#A91D5F" transform="translate(0,0)"/>
<path d="" fill="#AA1F5F" transform="translate(0,0)"/>
<path d="" fill="#A2225F" transform="translate(0,0)"/>
<path d="" fill="#A91D5D" transform="translate(0,0)"/>
<path d="" fill="#A3255E" transform="translate(0,0)"/>
<path d="" fill="#A81F5F" transform="translate(0,0)"/>
<path d="" fill="#A42861" transform="translate(0,0)"/>
<path d="" fill="#AA1C5E" transform="translate(0,0)"/>
<path d="" fill="#A1265F" transform="translate(0,0)"/>
<path d="" fill="#A3265F" transform="translate(0,0)"/>
<path d="" fill="#AB1A5C" transform="translate(0,0)"/>
<path d="" fill="#A71E5D" transform="translate(0,0)"/>
<path d="" fill="#A21B59" transform="translate(0,0)"/>
<path d="" fill="#A31D59" transform="translate(0,0)"/>
<path d="" fill="#A71D5D" transform="translate(0,0)"/>
<path d="" fill="#A7205E" transform="translate(0,0)"/>
<path d="" fill="#A51D5B" transform="translate(0,0)"/>
<path d="" fill="#A3205C" transform="translate(0,0)"/>
<path d="" fill="#A7205C" transform="translate(0,0)"/>
<path d="" fill="#A8215F" transform="translate(0,0)"/>
<path d="" fill="#A41B5B" transform="translate(0,0)"/>
<path d="" fill="#A51D5C" transform="translate(0,0)"/>
<path d="" fill="#A61E60" transform="translate(0,0)"/>
<path d="" fill="#A61C5E" transform="translate(0,0)"/>
<path d="" fill="#AA235F" transform="translate(0,0)"/>
<path d="" fill="#A91A5E" transform="translate(0,0)"/>
<path d="" fill="#A81B60" transform="translate(0,0)"/>
<path d="" fill="#A2225C" transform="translate(0,0)"/>
<path d="" fill="#A9205E" transform="translate(0,0)"/>
<path d="" fill="#A71E5F" transform="translate(0,0)"/>
<path d="" fill="#A12461" transform="translate(0,0)"/>
<path d="" fill="#AA1E60" transform="translate(0,0)"/>
<path d="" fill="#A0255B" transform="translate(0,0)"/>
<path d="" fill="#AB195F" transform="translate(0,0)"/>
<path d="" fill="#A71B5E" transform="translate(0,0)"/>
<path d="" fill="#A42660" transform="translate(0,0)"/>
<path d="" fill="#AA1F61" transform="translate(0,0)"/>
<path d="" fill="#A71C5D" transform="translate(0,0)"/>
<path d="" fill="#AC1D5F" transform="translate(0,0)"/>
<path d="" fill="#A91C5F" transform="translate(0,0)"/>
<path d="" fill="#AA1E5F" transform="translate(0,0)"/>
<path d="" fill="#AA1E5F" transform="translate(0,0)"/>
<path d="" fill="#A71F5F" transform="translate(0,0)"/>
<path d="" fill="#A71F5D" transform="translate(0,0)"/>
<path d="" fill="#AA1C60" transform="translate(0,0)"/>
<path d="" fill="#A91B5E" transform="translate(0,0)"/>
<path d="" fill="#A62361" transform="translate(0,0)"/>
<path d="" fill="#A82061" transform="translate(0,0)"/>
<path d="" fill="#A42560" transform="translate(0,0)"/>
<path d="" fill="#A3265F" transform="translate(0,0)"/>
<path d="" fill="#A42662" transform="translate(0,0)"/>
<path d="" fill="#A0235D" transform="translate(0,0)"/>
<path d="" fill="#A91E5F" transform="translate(0,0)"/>
<path d="" fill="#A51E5D" transform="translate(0,0)"/>
<path d="" fill="#A51E5E" transform="translate(0,0)"/>
<path d="" fill="#A81D5C" transform="translate(0,0)"/>
<path d="" fill="#A91D5E" transform="translate(0,0)"/>
<path d="" fill="#A51B5B" transform="translate(0,0)"/>
<path d="" fill="#A81E5E" transform="translate(0,0)"/>
<path d="" fill="#A51D5E" transform="translate(0,0)"/>
<path d="" fill="#A71C5D" transform="translate(0,0)"/>
<path d="" fill="#A61E60" transform="translate(0,0)"/>
<path d="" fill="#A61D5E" transform="translate(0,0)"/>
<path d="" fill="#A61E5D" transform="translate(0,0)"/>
<path d="" fill="#AB1C60" transform="translate(0,0)"/>
<path d="" fill="#A3245C" transform="translate(0,0)"/>
<path d="" fill="#A8205D" transform="translate(0,0)"/>
<path d="" fill="#A51B5D" transform="translate(0,0)"/>
<path d="" fill="#A4225F" transform="translate(0,0)"/>
<path d="" fill="#A61E5E" transform="translate(0,0)"/>
<path d="" fill="#A3205D" transform="translate(0,0)"/>
<path d="" fill="#AB1A61" transform="translate(0,0)"/>
<path d="" fill="#A7205C" transform="translate(0,0)"/>
<path d="" fill="#A6215D" transform="translate(0,0)"/>
<path d="" fill="#A81F61" transform="translate(0,0)"/>
<path d="" fill="#A41D5C" transform="translate(0,0)"/>
<path d="" fill="#A3255F" transform="translate(0,0)"/>
<path d="" fill="#A51D5E" transform="translate(0,0)"/>
<path d="" fill="#AB1D5F" transform="translate(0,0)"/>
<path d="" fill="#A61B5E" transform="translate(0,0)"/>
<path d="" fill="#A81E5C" transform="translate(0,0)"/>
<path d="" fill="#A41B5C" transform="translate(0,0)"/>
<path d="" fill="#A71C5E" transform="translate(0,0)"/>
<path d="" fill="#A1215F" transform="translate(0,0)"/>
<path d="" fill="#A42760" transform="translate(0,0)"/>
<path d="" fill="#A71D5C" transform="translate(0,0)"/>
<path d="" fill="#A51B5B" transform="translate(0,0)"/>
<path d="" fill="#A81960" transform="translate(0,0)"/>
<path d="" fill="#A81B5E" transform="translate(0,0)"/>
<path d="" fill="#9F2C60" transform="translate(0,0)"/>
<path d="" fill="#A51D5E" transform="translate(0,0)"/>
<path d="" fill="#A3255F" transform="translate(0,0)"/>
<path d="" fill="#A12861" transform="translate(0,0)"/>
<path d="" fill="#A42A61" transform="translate(0,0)"/>
<path d="" fill="#A1255E" transform="translate(0,0)"/>
<path d="" fill="#A8245F" transform="translate(0,0)"/>
<path d="" fill="#AA1A5D" transform="translate(0,0)"/>
<path d="" fill="#A2225D" transform="translate(0,0)"/>
<path d="" fill="#A61C5C" transform="translate(0,0)"/>
<path d="" fill="#A61D5C" transform="translate(0,0)"/>
<path d="" fill="#A31E5C" transform="translate(0,0)"/>
<path d="" fill="#A61C5F" transform="translate(0,0)"/>
<path d="" fill="#A82361" transform="translate(0,0)"/>
<path d="" fill="#AA1D5E" transform="translate(0,0)"/>
<path d="" fill="#AC205E" transform="translate(0,0)"/>
<path d="" fill="#A41F5E" transform="translate(0,0)"/>
<path d="" fill="#A31D5E" transform="translate(0,0)"/>
<path d="" fill="#A7205F" transform="translate(0,0)"/>
<path d="" fill="#A82365" transform="translate(0,0)"/>
<path d="" fill="#A4235F" transform="translate(0,0)"/>
<path d="" fill="#A71A5D" transform="translate(0,0)"/>
<path d="" fill="#A81B5E" transform="translate(0,0)"/>
<path d="" fill="#AA1C5E" transform="translate(0,0)"/>
<path d="" fill="#A71F5C" transform="translate(0,0)"/>
<path d="" fill="#A12360" transform="translate(0,0)"/>
<path d="" fill="#A32862" transform="translate(0,0)"/>
<path d="" fill="#A11D5E" transform="translate(0,0)"/>
<path d="" fill="#A5255F" transform="translate(0,0)"/>
<path d="" fill="#AA2762" transform="translate(0,0)"/>
<path d="" fill="#A3225E" transform="translate(0,0)"/>
<path d="" fill="#A1225B" transform="translate(0,0)"/>
<path d="" fill="#A3225E" transform="translate(0,0)"/>
</svg>
